<svg xmlns="http://www.w3.org/2000/svg" width="333" height="79" viewBox="0 0 333 79"><defs><style>.a{fill:#e99f0e;}</style></defs><g transform="translate(-27 -2166.5)"><rect class="a" width="333" height="79" transform="translate(27 2166.5)"/><path d="M-.209,0h4.75l.684-1.786H9.88L10.583,0h4.826L9.8-13.4H5.4ZM6.346-4.94,7.562-8.17,8.778-4.94ZM15.96,0H20.9c5.377,0,8.075-2.793,8.075-6.726v-.038c0-3.933-2.641-6.536-7.923-6.536H15.96Zm5.187-9.424c2.033,0,3.344.836,3.344,2.755v.038c0,1.919-1.311,2.755-3.344,2.755h-.741V-9.424ZM30.191,0h4.94c5.377,0,8.075-2.793,8.075-6.726v-.038c0-3.933-2.641-6.536-7.923-6.536H30.191Zm5.187-9.424c2.033,0,3.344.836,3.344,2.755v.038c0,1.919-1.311,2.755-3.344,2.755h-.741V-9.424ZM52.649,0H57.1V-9.538h3.914V-13.3H48.735v3.762h3.914ZM68.381.285A7.042,7.042,0,0,0,75.658-6.65v-.038a6.978,6.978,0,0,0-7.239-6.9A7.042,7.042,0,0,0,61.142-6.65v.038A6.978,6.978,0,0,0,68.381.285Zm.038-3.933a2.845,2.845,0,0,1-2.793-3v-.038a2.805,2.805,0,0,1,2.755-2.964,2.845,2.845,0,0,1,2.793,3v.038A2.805,2.805,0,0,1,68.419-3.648ZM88.293.285a6.722,6.722,0,0,0,6.289-3.591L90.915-5.377a2.726,2.726,0,0,1-2.508,1.672c-1.463,0-2.489-1.216-2.489-2.945v-.038A2.646,2.646,0,0,1,88.407-9.6,2.582,2.582,0,0,1,90.82-7.98l3.667-2.147a6.521,6.521,0,0,0-6.023-3.458A6.873,6.873,0,0,0,81.4-6.65v.038A6.776,6.776,0,0,0,88.293.285ZM94.24,0h4.75l.684-1.786h4.655l.7,1.786h4.826l-5.605-13.4H99.845Zm6.555-4.94,1.216-3.23,1.216,3.23ZM110.409,0h4.446V-3.8h.95L118.313,0h5.073l-3.1-4.522a4.3,4.3,0,0,0,2.622-4.066v-.038a4.178,4.178,0,0,0-1.216-3.154c-.931-.931-2.432-1.52-4.788-1.52h-6.5Zm4.446-6.973v-2.6h1.938c1.026,0,1.691.418,1.691,1.273v.038c0,.817-.646,1.292-1.71,1.292ZM127.395,0h4.446V-9.538h3.914V-13.3H123.481v3.762h3.914Z" transform="translate(124 2212.5)"/></g></svg>