<svg xmlns="http://www.w3.org/2000/svg" width="333" height="79" viewBox="0 0 333 79"><defs><style>.a{fill:#e99f0e;}</style></defs><g transform="translate(-143 -537.5)"><path class="a" d="M0,0H333V79H0Z" transform="translate(143 537.5)"/><path d="M6.479.247c3.572,0,5.871-1.71,5.871-4.5v-.038c0-2.679-2.28-3.667-5.681-4.294C5.263-8.854,4.9-9.082,4.9-9.443v-.038c0-.323.3-.551.969-.551a6.975,6.975,0,0,1,3.99,1.311l2.166-3a9.206,9.206,0,0,0-6-1.824C2.356-13.547.38-11.59.38-9.063v.038C.38-6.213,3-5.358,5.985-4.75c1.425.285,1.843.494,1.843.874v.038c0,.361-.342.57-1.14.57A7.622,7.622,0,0,1,2.033-4.826L-.342-2A10.275,10.275,0,0,0,6.479.247ZM13.376,0h4.446V-4.769h4.066V0h4.446V-13.3H21.888v4.693H17.822V-13.3H13.376ZM34.789.285A7.042,7.042,0,0,0,42.066-6.65v-.038a6.978,6.978,0,0,0-7.239-6.9A7.042,7.042,0,0,0,27.55-6.65v.038A6.978,6.978,0,0,0,34.789.285Zm.038-3.933a2.845,2.845,0,0,1-2.793-3v-.038a2.805,2.805,0,0,1,2.755-2.964,2.845,2.845,0,0,1,2.793,3v.038A2.805,2.805,0,0,1,34.827-3.648ZM43.282,0h4.446V-3.61h1.444c3.591,0,6.042-1.71,6.042-4.921v-.038c0-3.154-2.413-4.731-5.947-4.731H43.282Zm4.446-6.783V-9.747h1.216c1.178,0,1.881.494,1.881,1.463v.038c0,.95-.76,1.463-1.9,1.463ZM60.99,0H65.4V-6.137L70.338,0H74.29V-13.3H69.882v5.871L65.151-13.3H60.99ZM82.745.285A7.042,7.042,0,0,0,90.022-6.65v-.038a6.978,6.978,0,0,0-7.239-6.9A7.042,7.042,0,0,0,75.506-6.65v.038A6.978,6.978,0,0,0,82.745.285Zm.038-3.933a2.845,2.845,0,0,1-2.793-3v-.038a2.805,2.805,0,0,1,2.755-2.964,2.845,2.845,0,0,1,2.793,3v.038A2.805,2.805,0,0,1,82.783-3.648ZM94.069.1h3.876l2.337-6.612L102.619.1h3.876l4.351-13.4h-4.579l-1.881,6.384-2.147-6.422H98.4L96.254-6.916,94.373-13.3H89.718Z" transform="translate(254 583.5)"/></g></svg>